{"title":"The Legend of Tarzan 2016.1080p.HDRIP.x264.AAC-SS","uid":15756573,"size":5206478458,"categoryP":"video","categoryS":"hd___movies","magnet":"?xt=urn:btih:55534e9df24f675d7c876bcbf9053af4b6affd76&amp;dn=The+Legend+of+Tarzan+2016.1080p.HDRIP.x264.AAC-SS&amp;tr=udp%3A%2F%2Ftracker.leechers-paradise.org%3A6969&amp;tr=udp%3A%2F%2Fzer0day.ch%3A1337&amp;tr=udp%3A%2F%2Fopen.demonii.com%3A1337&amp;tr=udp%3A%2F%2Ftracker.coppersurfer.tk%3A6969&amp;tr=udp%3A%2F%2Fexodus.desync.com%3A6969","seeders":20,"leechers":17,"uploader":"makintos13","files":2,"time":1473062660,"description":"screens:\r\n \nhttps://imgmak.com/af0\r\n \nhttps://imgmak.com/afA\r\n \nhttps://imgmak.com/afD\r\n \nhttps://imgmak.com/aff\r\n\r\nThe.Legend.of.Tarzan.2016.1080p.HDRIP.x264.AAC-SS\r\n \nhttps://www.imdb.com/title/tt0918940/\r\n\r\nNote : we are back with other exclusive , this version is clean no subs no stutter issue too , \r\nvideo sample u can check and there english subs when needed, enjoy \r\n\r\nGeneral\r\nComplete name               : The.Legend.of.Tarzan.2016.1080p.HDRIP.x264.AAC-SS.mp4\r\nFormat                      : MPEG-4\r\nFormat profile              : Base Media / Version 2\r\nCodec ID                    : mp42 (mp42/isom/avc1)\r\nFile size                   : 4.80 GiB\r\nDuration                    : 1 h 49 min\r\nOverall bit rate            : 6 259 kb/s\r\nEncoded date                : UTC 2016-09-04 09:35:29\r\nTagged date                 : UTC 2016-09-04 09:57:58\r\nWriting application         : DVDFab 9.2.2.4\r\ncovr                        : Unknown kind of value!\r\n\r\nVideo\r\nID                          : 1\r\nFormat                      : AVC\r\nFormat/Info                 : Advanced Video Codec\r\nFormat profile              :   \r\nFormat settings, CABAC      : Yes\r\nFormat settings, ReFrames   : 1 frame\r\nCodec ID                    : avc1\r\nCodec ID/Info               : Advanced Video Coding\r\nDuration                    : 1 h 49 min\r\nBit rate                    : 6 000 kb/s\r\nWidth                       : 1 912 pixels\r\nHeight                      : 800 pixels\r\nDisplay aspect ratio        : 2.40:1\r\nFrame rate mode             : Constant\r\nFrame rate                  : 29.970 (30000/1001) FPS\r\nColor space                 : YUV\r\nChroma subsampling          : 4:2:0\r\nBit depth                   : 8 bits\r\nScan type                   : Progressive\r\nBits/(Pixel*Frame)          : 0.131\r\nStream size                 : 4.60 GiB (96%)\r\nWriting library             : x264 core 142\r\nEncoded date                : UTC 2016-09-04 09:35:29\r\nTagged date                 : UTC 2016-09-04 09:57:58\r\nColor range                 : Limited\r\nColor primaries             : BT.709\r\nTransfer characteristics    : BT.709\r\nMatrix coefficients         : BT.709\r\n\r\nAudio\r\nID                          : 2\r\nFormat                      : AAC\r\nFormat/Info                 : Advanced Audio Codec\r\nFormat profile              : LC\r\nCodec ID                    : 40\r\nDuration                    : 1 h 49 min\r\nBit rate mode               : Constant\r\nBit rate                    : 256 kb/s\r\nChannel(s)                  : 2 channels\r\nChannel positions           : Front: L R\r\nSampling rate               : 48.0 kHz\r\nFrame rate                  : 46.875 FPS (1024 spf)\r\nCompression mode            : Lossy\r\nStream size                 : 201 MiB (4%)\r\nTitle                       : aac 2.0\r\nDefault                     : Yes\r\nAlternate group             : 1\r\nEncoded date                : UTC 2016-09-04 09:35:29\r\nTagged date                 : UTC 2016-09-04 09:57:58","torrent":{"xt":"urn:btih:55534e9df24f675d7c876bcbf9053af4b6affd76","amp;dn":"The+Legend+of+Tarzan+2016.1080p.HDRIP.x264.AAC-SS","amp;tr":["udp%3A%2F%2Ftracker.leechers-paradise.org%3A6969","udp%3A%2F%2Fzer0day.ch%3A1337","udp%3A%2F%2Fopen.demonii.com%3A1337","udp%3A%2F%2Ftracker.coppersurfer.tk%3A6969","udp%3A%2F%2Fexodus.desync.com%3A6969"],"infoHash":"55534e9df24f675d7c876bcbf9053af4b6affd76","infoHashBuffer":{"type":"Buffer","data":[85,83,78,157,242,79,103,93,124,135,107,203,249,5,58,244,182,175,253,118]},"announce":[],"urlList":[]}}